%TF.GenerationSoftware,KiCad,Pcbnew,10.0.4*%
%TF.CreationDate,2026-07-11T15:36:25-04:00*%
%TF.ProjectId,first_pcb,66697273-745f-4706-9362-2e6b69636164,rev?*%
%TF.SameCoordinates,Original*%
%TF.FileFunction,Copper,L1,Top*%
%TF.FilePolarity,Positive*%
%FSLAX46Y46*%
G04 Gerber Fmt 4.6, Leading zero omitted, Abs format (unit mm)*
G04 Created by KiCad (PCBNEW 10.0.4) date 2026-07-11 15:36:25*
%MOMM*%
%LPD*%
G01*
G04 APERTURE LIST*
G04 Aperture macros list*
%AMRoundRect*
0 Rectangle with rounded corners*
0 $1 Rounding radius*
0 $2 $3 $4 $5 $6 $7 $8 $9 X,Y pos of 4 corners*
0 Add a 4 corners polygon primitive as box body*
4,1,4,$2,$3,$4,$5,$6,$7,$8,$9,$2,$3,0*
0 Add four circle primitives for the rounded corners*
1,1,$1+$1,$2,$3*
1,1,$1+$1,$4,$5*
1,1,$1+$1,$6,$7*
1,1,$1+$1,$8,$9*
0 Add four rect primitives between the rounded corners*
20,1,$1+$1,$2,$3,$4,$5,0*
20,1,$1+$1,$4,$5,$6,$7,0*
20,1,$1+$1,$6,$7,$8,$9,0*
20,1,$1+$1,$8,$9,$2,$3,0*%
G04 Aperture macros list end*
%TA.AperFunction,SMDPad,CuDef*%
%ADD10RoundRect,0.250000X0.400000X0.625000X-0.400000X0.625000X-0.400000X-0.625000X0.400000X-0.625000X0*%
%TD*%
%TA.AperFunction,ComponentPad*%
%ADD11C,1.600000*%
%TD*%
%TA.AperFunction,ComponentPad*%
%ADD12R,1.700000X1.700000*%
%TD*%
%TA.AperFunction,ComponentPad*%
%ADD13C,1.700000*%
%TD*%
%TA.AperFunction,SMDPad,CuDef*%
%ADD14RoundRect,0.152400X1.063600X0.609600X-1.063600X0.609600X-1.063600X-0.609600X1.063600X-0.609600X0*%
%TD*%
%TA.AperFunction,ComponentPad*%
%ADD15C,1.524000*%
%TD*%
%TA.AperFunction,SMDPad,CuDef*%
%ADD16RoundRect,0.152400X-1.063600X-0.609600X1.063600X-0.609600X1.063600X0.609600X-1.063600X0.609600X0*%
%TD*%
%TA.AperFunction,Conductor*%
%ADD17C,0.500000*%
%TD*%
G04 APERTURE END LIST*
D10*
%TO.P,R1,1*%
%TO.N,Net-(D1-A)*%
X76100000Y-78000000D03*
%TO.P,R1,2*%
%TO.N,Net-(U1-GPIO5_A3_D3)*%
X73000000Y-78000000D03*
%TD*%
D11*
%TO.P,J1,5,Pin_5_5*%
%TO.N,Net-(J1-Pin_5)*%
X81000000Y-59920000D03*
%TO.P,J1,4,Pin_4_4*%
%TO.N,Net-(J1-Pin_4)*%
X81000000Y-62460000D03*
%TO.P,J1,3,Pin_3_3*%
%TO.N,Net-(J1-Pin_3)*%
X81000000Y-65000000D03*
%TO.P,J1,2,Pin_2_2*%
%TO.N,+3V3*%
X81000000Y-67540000D03*
%TO.P,J1,1,Pin_1_1*%
%TO.N,GND*%
X81000000Y-70080000D03*
%TD*%
D12*
%TO.P,D1,1,K_1*%
%TO.N,GND*%
X83500000Y-80540000D03*
D13*
%TO.P,D1,2,A_2*%
%TO.N,Net-(D1-A)*%
X83500000Y-78000000D03*
%TD*%
D14*
%TO.P,U1,1,GPIO2_A0_D0_1*%
%TO.N,Net-(J1-Pin_5)*%
X89165000Y-60000000D03*
D15*
X90000000Y-60000000D03*
D14*
%TO.P,U1,2,GPIO3_A1_D1_2*%
%TO.N,Net-(J1-Pin_4)*%
X89165000Y-62540000D03*
D15*
X90000000Y-62540000D03*
D14*
%TO.P,U1,3,GPIO4_A2_D2_3*%
%TO.N,Net-(J1-Pin_3)*%
X89165000Y-65080000D03*
D15*
X90000000Y-65080000D03*
D14*
%TO.P,U1,4,GPIO5_A3_D3_4*%
%TO.N,Net-(U1-GPIO5_A3_D3)*%
X89165000Y-67620000D03*
D15*
X90000000Y-67620000D03*
D14*
%TO.P,U1,5,GPIO6_D4_SDA_5*%
%TO.N,unconnected-(U1-GPIO6_D4_SDA-Pad5)_1*%
X89165000Y-70160000D03*
D15*
%TO.N,unconnected-(U1-GPIO6_D4_SDA-Pad5)*%
X90000000Y-70160000D03*
D14*
%TO.P,U1,6,GPIO7_D5_SCL_6*%
%TO.N,unconnected-(U1-GPIO7_D5_SCL-Pad6)*%
X89165000Y-72700000D03*
D15*
%TO.N,unconnected-(U1-GPIO7_D5_SCL-Pad6)_1*%
X90000000Y-72700000D03*
D14*
%TO.P,U1,7,GPIO21_D6_TX_7*%
%TO.N,unconnected-(U1-GPIO21_D6_TX-Pad7)_1*%
X89165000Y-75240000D03*
D15*
%TO.N,unconnected-(U1-GPIO21_D6_TX-Pad7)*%
X90000000Y-75240000D03*
%TO.P,U1,8,GPIO20_D7_RX_8*%
%TO.N,unconnected-(U1-GPIO20_D7_RX-Pad8)*%
X105240000Y-75240000D03*
D16*
%TO.N,unconnected-(U1-GPIO20_D7_RX-Pad8)_1*%
X106075000Y-75240000D03*
D15*
%TO.P,U1,9,GPIO8_D8_SCK_9*%
%TO.N,unconnected-(U1-GPIO8_D8_SCK-Pad9)_1*%
X105240000Y-72700000D03*
D16*
%TO.N,unconnected-(U1-GPIO8_D8_SCK-Pad9)*%
X106075000Y-72700000D03*
D15*
%TO.P,U1,10,GPIO9_D9_MISO_10*%
%TO.N,unconnected-(U1-GPIO9_D9_MISO-Pad10)_1*%
X105240000Y-70160000D03*
D16*
%TO.N,unconnected-(U1-GPIO9_D9_MISO-Pad10)*%
X106075000Y-70160000D03*
D15*
%TO.P,U1,11,GPIO10_D10_MOSI_11*%
%TO.N,unconnected-(U1-GPIO10_D10_MOSI-Pad11)*%
X105240000Y-67620000D03*
D16*
%TO.N,unconnected-(U1-GPIO10_D10_MOSI-Pad11)_1*%
X106075000Y-67620000D03*
D15*
%TO.P,U1,12,3V3_12*%
%TO.N,+3V3*%
X105240000Y-65080000D03*
D16*
X106075000Y-65080000D03*
D15*
%TO.P,U1,13,GND_13*%
%TO.N,GND*%
X105240000Y-62540000D03*
D16*
X106075000Y-62540000D03*
D15*
%TO.P,U1,14,VBUS_14*%
%TO.N,unconnected-(U1-VBUS-Pad14)*%
X105240000Y-60000000D03*
D16*
%TO.N,unconnected-(U1-VBUS-Pad14)_1*%
X106075000Y-60000000D03*
%TD*%
%TO.N,+3V3*%
D17*
X81000000Y-67540000D02*
X77040000Y-67540000D01*
X77040000Y-67540000D02*
X74000000Y-64500000D01*
X90000000Y-55000000D02*
X100080000Y-65080000D01*
X74000000Y-64500000D02*
X74000000Y-59000000D01*
X74000000Y-59000000D02*
X78000000Y-55000000D01*
X100080000Y-65080000D02*
X105240000Y-65080000D01*
X78000000Y-55000000D02*
X90000000Y-55000000D01*
%TO.N,Net-(J1-Pin_3)*%
X81000000Y-65000000D02*
X89920000Y-65000000D01*
X89920000Y-65000000D02*
X90000000Y-65080000D01*
%TO.N,Net-(J1-Pin_4)*%
X81000000Y-62460000D02*
X89920000Y-62460000D01*
X89920000Y-62460000D02*
X90000000Y-62540000D01*
%TO.N,Net-(J1-Pin_5)*%
X81000000Y-59920000D02*
X81080000Y-60000000D01*
X81080000Y-60000000D02*
X90000000Y-60000000D01*
%TO.N,Net-(D1-A)*%
X83500000Y-78000000D02*
X76100000Y-78000000D01*
%TD*%
%TA.AperFunction,Conductor*%
%TO.N,GND*%
G36*
X111002702Y-50000617D02*
G01*
X111386773Y-50017386D01*
X111397505Y-50018326D01*
X111775963Y-50068150D01*
X111786601Y-50070025D01*
X112159279Y-50152647D01*
X112169720Y-50155445D01*
X112533765Y-50270227D01*
X112543911Y-50273920D01*
X112896578Y-50420000D01*
X112906369Y-50424566D01*
X113244942Y-50600816D01*
X113254310Y-50606224D01*
X113576244Y-50811318D01*
X113585105Y-50817523D01*
X113887930Y-51049889D01*
X113896217Y-51056843D01*
X114177635Y-51314715D01*
X114185284Y-51322364D01*
X114443156Y-51603782D01*
X114450110Y-51612069D01*
X114682476Y-51914894D01*
X114688681Y-51923755D01*
X114893775Y-52245689D01*
X114899183Y-52255057D01*
X115075430Y-52593623D01*
X115080002Y-52603427D01*
X115226075Y-52956078D01*
X115229775Y-52966244D01*
X115344553Y-53330276D01*
X115347353Y-53340724D01*
X115429972Y-53713390D01*
X115431850Y-53724044D01*
X115481671Y-54102472D01*
X115482614Y-54113248D01*
X115499382Y-54497297D01*
X115499500Y-54502706D01*
X115499500Y-82497293D01*
X115499382Y-82502702D01*
X115482614Y-82886751D01*
X115481671Y-82897527D01*
X115431850Y-83275955D01*
X115429972Y-83286609D01*
X115347353Y-83659275D01*
X115344553Y-83669723D01*
X115229775Y-84033755D01*
X115226075Y-84043921D01*
X115080002Y-84396572D01*
X115075430Y-84406376D01*
X114899183Y-84744942D01*
X114893775Y-84754310D01*
X114688681Y-85076244D01*
X114682476Y-85085105D01*
X114450110Y-85387930D01*
X114443156Y-85396217D01*
X114185284Y-85677635D01*
X114177635Y-85685284D01*
X113896217Y-85943156D01*
X113887930Y-85950110D01*
X113585105Y-86182476D01*
X113576244Y-86188681D01*
X113254310Y-86393775D01*
X113244942Y-86399183D01*
X112906376Y-86575430D01*
X112896572Y-86580002D01*
X112543921Y-86726075D01*
X112533755Y-86729775D01*
X112169723Y-86844553D01*
X112159275Y-86847353D01*
X111786609Y-86929972D01*
X111775955Y-86931850D01*
X111397527Y-86981671D01*
X111386751Y-86982614D01*
X111002703Y-86999382D01*
X110997294Y-86999500D01*
X70002706Y-86999500D01*
X69997297Y-86999382D01*
X69613248Y-86982614D01*
X69602474Y-86981671D01*
X69540007Y-86973447D01*
X69224044Y-86931850D01*
X69213390Y-86929972D01*
X68840724Y-86847353D01*
X68830276Y-86844553D01*
X68466244Y-86729775D01*
X68456078Y-86726075D01*
X68103427Y-86580002D01*
X68093623Y-86575430D01*
X67755057Y-86399183D01*
X67745689Y-86393775D01*
X67423755Y-86188681D01*
X67414894Y-86182476D01*
X67112069Y-85950110D01*
X67103782Y-85943156D01*
X66822364Y-85685284D01*
X66814715Y-85677635D01*
X66556843Y-85396217D01*
X66549889Y-85387930D01*
X66317523Y-85085105D01*
X66311318Y-85076244D01*
X66106224Y-84754310D01*
X66100816Y-84744942D01*
X65924569Y-84406376D01*
X65919997Y-84396572D01*
X65773924Y-84043921D01*
X65770224Y-84033755D01*
X65655446Y-83669723D01*
X65652646Y-83659275D01*
X65570027Y-83286609D01*
X65568149Y-83275955D01*
X65555642Y-83180953D01*
X65518326Y-82897505D01*
X65517386Y-82886773D01*
X65500618Y-82502702D01*
X65500500Y-82497293D01*
X65500500Y-77310777D01*
X71349500Y-77310777D01*
X71349500Y-78689208D01*
X71349501Y-78689223D01*
X71359904Y-78821413D01*
X71359905Y-78821420D01*
X71414902Y-79039678D01*
X71414903Y-79039681D01*
X71507991Y-79244622D01*
X71507997Y-79244632D01*
X71636174Y-79429645D01*
X71636178Y-79429650D01*
X71636181Y-79429654D01*
X71795346Y-79588819D01*
X71795350Y-79588822D01*
X71795354Y-79588825D01*
X71872356Y-79642172D01*
X71980374Y-79717007D01*
X72185317Y-79810096D01*
X72185321Y-79810097D01*
X72403579Y-79865094D01*
X72403581Y-79865094D01*
X72403588Y-79865096D01*
X72535783Y-79875500D01*
X73464216Y-79875499D01*
X73596412Y-79865096D01*
X73814683Y-79810096D01*
X74019626Y-79717007D01*
X74204654Y-79588819D01*
X74363819Y-79429654D01*
X74448073Y-79308039D01*
X74502430Y-79264146D01*
X74571892Y-79256606D01*
X74634403Y-79287817D01*
X74651923Y-79308035D01*
X74736181Y-79429654D01*
X74895346Y-79588819D01*
X74895350Y-79588822D01*
X74895354Y-79588825D01*
X74972356Y-79642172D01*
X75080374Y-79717007D01*
X75285317Y-79810096D01*
X75285321Y-79810097D01*
X75503579Y-79865094D01*
X75503581Y-79865094D01*
X75503588Y-79865096D01*
X75635783Y-79875500D01*
X76564216Y-79875499D01*
X76696412Y-79865096D01*
X76914683Y-79810096D01*
X77119626Y-79717007D01*
X77304654Y-79588819D01*
X77463819Y-79429654D01*
X77509843Y-79363222D01*
X77550953Y-79303884D01*
X77605311Y-79259987D01*
X77652881Y-79250500D01*
X82082135Y-79250500D01*
X82111575Y-79259144D01*
X82141562Y-79265668D01*
X82146577Y-79269422D01*
X82149174Y-79270185D01*
X82169816Y-79286819D01*
X82184896Y-79301899D01*
X82218381Y-79363222D01*
X82213397Y-79432914D01*
X82207081Y-79446744D01*
X82156403Y-79582620D01*
X82156401Y-79582627D01*
X82150000Y-79642155D01*
X82150000Y-80290000D01*
X83066988Y-80290000D01*
X83034075Y-80347007D01*
X83000000Y-80474174D01*
X83000000Y-80605826D01*
X83034075Y-80732993D01*
X83066988Y-80790000D01*
X82150000Y-80790000D01*
X82150000Y-81437844D01*
X82156401Y-81497372D01*
X82156403Y-81497379D01*
X82206645Y-81632086D01*
X82206649Y-81632093D01*
X82292809Y-81747187D01*
X82292812Y-81747190D01*
X82407906Y-81833350D01*
X82407913Y-81833354D01*
X82542620Y-81883596D01*
X82542627Y-81883598D01*
X82602155Y-81889999D01*
X82602172Y-81890000D01*
X83250000Y-81890000D01*
X83250000Y-80973012D01*
X83307007Y-81005925D01*
X83434174Y-81040000D01*
X83565826Y-81040000D01*
X83692993Y-81005925D01*
X83750000Y-80973012D01*
X83750000Y-81890000D01*
X84397828Y-81890000D01*
X84397844Y-81889999D01*
X84457372Y-81883598D01*
X84457379Y-81883596D01*
X84592086Y-81833354D01*
X84592093Y-81833350D01*
X84707187Y-81747190D01*
X84707190Y-81747187D01*
X84793350Y-81632093D01*
X84793354Y-81632086D01*
X84843596Y-81497379D01*
X84843598Y-81497372D01*
X84849999Y-81437844D01*
X84850000Y-81437827D01*
X84850000Y-80790000D01*
X83933012Y-80790000D01*
X83965925Y-80732993D01*
X84000000Y-80605826D01*
X84000000Y-80474174D01*
X83965925Y-80347007D01*
X83933012Y-80290000D01*
X84850000Y-80290000D01*
X84850000Y-79642172D01*
X84849999Y-79642155D01*
X84843598Y-79582627D01*
X84843596Y-79582620D01*
X84790254Y-79439601D01*
X84791781Y-79439031D01*
X84779100Y-79380735D01*
X84803516Y-79315270D01*
X84815090Y-79301912D01*
X84894265Y-79222738D01*
X85041936Y-79030289D01*
X85163224Y-78820212D01*
X85256054Y-78596100D01*
X85318838Y-78361789D01*
X85350500Y-78121288D01*
X85350500Y-77878712D01*
X85318838Y-77638211D01*
X85256054Y-77403900D01*
X85163224Y-77179788D01*
X85041936Y-76969711D01*
X84894265Y-76777262D01*
X84894260Y-76777256D01*
X84722743Y-76605739D01*
X84722736Y-76605733D01*
X84530293Y-76458067D01*
X84530292Y-76458066D01*
X84530289Y-76458064D01*
X84320212Y-76336776D01*
X84320205Y-76336773D01*
X84096104Y-76243947D01*
X83894414Y-76189904D01*
X83861789Y-76181162D01*
X83861788Y-76181161D01*
X83861785Y-76181161D01*
X83621289Y-76149500D01*
X83621288Y-76149500D01*
X83378712Y-76149500D01*
X83378711Y-76149500D01*
X83138214Y-76181161D01*
X82903895Y-76243947D01*
X82679794Y-76336773D01*
X82679785Y-76336777D01*
X82469706Y-76458067D01*
X82277264Y-76605732D01*
X82241150Y-76641847D01*
X82169814Y-76713182D01*
X82108494Y-76746666D01*
X82082135Y-76749500D01*
X77652881Y-76749500D01*
X77585842Y-76729815D01*
X77550953Y-76696116D01*
X77463825Y-76570354D01*
X77463822Y-76570350D01*
X77463819Y-76570346D01*
X77304654Y-76411181D01*
X77304650Y-76411178D01*
X77304645Y-76411174D01*
X77119632Y-76282997D01*
X77119630Y-76282995D01*
X77119626Y-76282993D01*
X76983788Y-76221293D01*
X76914681Y-76189903D01*
X76914678Y-76189902D01*
X76696420Y-76134905D01*
X76696413Y-76134904D01*
X76652347Y-76131436D01*
X76564217Y-76124500D01*
X76564215Y-76124500D01*
X75635791Y-76124500D01*
X75635776Y-76124501D01*
X75503586Y-76134904D01*
X75503579Y-76134905D01*
X75285321Y-76189902D01*
X75285318Y-76189903D01*
X75080377Y-76282991D01*
X75080367Y-76282997D01*
X74895354Y-76411174D01*
X74895342Y-76411184D01*
X74736184Y-76570342D01*
X74736174Y-76570354D01*
X74651928Y-76691956D01*
X74597569Y-76735853D01*
X74528107Y-76743392D01*
X74465596Y-76712181D01*
X74448072Y-76691956D01*
X74363825Y-76570354D01*
X74363822Y-76570350D01*
X74363819Y-76570346D01*
X74204654Y-76411181D01*
X74204650Y-76411178D01*
X74204645Y-76411174D01*
X74019632Y-76282997D01*
X74019630Y-76282995D01*
X74019626Y-76282993D01*
X73883788Y-76221293D01*
X73814681Y-76189903D01*
X73814678Y-76189902D01*
X73596420Y-76134905D01*
X73596413Y-76134904D01*
X73552347Y-76131436D01*
X73464217Y-76124500D01*
X73464215Y-76124500D01*
X72535791Y-76124500D01*
X72535776Y-76124501D01*
X72403586Y-76134904D01*
X72403579Y-76134905D01*
X72185321Y-76189902D01*
X72185318Y-76189903D01*
X71980377Y-76282991D01*
X71980367Y-76282997D01*
X71795354Y-76411174D01*
X71795342Y-76411184D01*
X71636184Y-76570342D01*
X71636174Y-76570354D01*
X71507997Y-76755367D01*
X71507991Y-76755377D01*
X71414903Y-76960318D01*
X71414902Y-76960321D01*
X71359905Y-77178579D01*
X71359904Y-77178586D01*
X71349500Y-77310777D01*
X65500500Y-77310777D01*
X65500500Y-58901577D01*
X72749500Y-58901577D01*
X72749500Y-64598422D01*
X72780290Y-64792826D01*
X72841117Y-64980030D01*
X72911419Y-65118004D01*
X72930476Y-65155405D01*
X73046172Y-65314646D01*
X76225354Y-68493828D01*
X76384595Y-68609524D01*
X76467454Y-68651742D01*
X76559969Y-68698882D01*
X76559971Y-68698882D01*
X76559974Y-68698884D01*
X76654806Y-68729697D01*
X76747172Y-68759709D01*
X76941578Y-68790500D01*
X76941583Y-68790500D01*
X77138416Y-68790500D01*
X79652847Y-68790500D01*
X79719886Y-68810185D01*
X79740523Y-68826814D01*
X79777351Y-68863642D01*
X79810303Y-68896594D01*
X79858184Y-68933334D01*
X79997550Y-69040273D01*
X80128918Y-69116118D01*
X80201943Y-69158280D01*
X80201959Y-69158288D01*
X80337936Y-69214611D01*
X80420007Y-69248606D01*
X80527457Y-69277397D01*
X80583043Y-69309490D01*
X80953554Y-69680000D01*
X80947339Y-69680000D01*
X80845606Y-69707259D01*
X80754394Y-69759920D01*
X80679920Y-69834394D01*
X80627259Y-69925606D01*
X80600000Y-70027339D01*
X80600000Y-70033553D01*
X79920524Y-69354077D01*
X79920523Y-69354077D01*
X79888143Y-69398644D01*
X79795244Y-69580968D01*
X79732009Y-69775582D01*
X79700000Y-69977682D01*
X79700000Y-70182317D01*
X79732009Y-70384417D01*
X79795244Y-70579031D01*
X79888141Y-70761350D01*
X79888147Y-70761359D01*
X79920523Y-70805921D01*
X79920524Y-70805922D01*
X80600000Y-70126446D01*
X80600000Y-70132661D01*
X80627259Y-70234394D01*
X80679920Y-70325606D01*
X80754394Y-70400080D01*
X80845606Y-70452741D01*
X80947339Y-70480000D01*
X80953553Y-70480000D01*
X80274076Y-71159474D01*
X80318650Y-71191859D01*
X80500968Y-71284755D01*
X80695582Y-71347990D01*
X80897683Y-71380000D01*
X81102317Y-71380000D01*
X81304417Y-71347990D01*
X81499031Y-71284755D01*
X81681349Y-71191859D01*
X81725921Y-71159474D01*
X81046447Y-70480000D01*
X81052661Y-70480000D01*
X81154394Y-70452741D01*
X81245606Y-70400080D01*
X81320080Y-70325606D01*
X81372741Y-70234394D01*
X81400000Y-70132661D01*
X81400000Y-70126447D01*
X82079474Y-70805921D01*
X82111859Y-70761349D01*
X82204755Y-70579031D01*
X82267990Y-70384417D01*
X82300000Y-70182317D01*
X82300000Y-69977682D01*
X82267990Y-69775582D01*
X82204755Y-69580968D01*
X82111859Y-69398650D01*
X82079474Y-69354077D01*
X82079474Y-69354076D01*
X81400000Y-70033551D01*
X81400000Y-70027339D01*
X81372741Y-69925606D01*
X81320080Y-69834394D01*
X81245606Y-69759920D01*
X81154394Y-69707259D01*
X81052661Y-69680000D01*
X81046447Y-69680000D01*
X81416955Y-69309490D01*
X81472538Y-69277398D01*
X81579993Y-69248606D01*
X81798049Y-69158284D01*
X82002450Y-69040273D01*
X82189699Y-68896592D01*
X82356592Y-68729699D01*
X82500273Y-68542450D01*
X82618284Y-68338049D01*
X82708606Y-68119993D01*
X82769693Y-67892014D01*
X82800500Y-67658011D01*
X82800500Y-67421989D01*
X82769693Y-67187986D01*
X82708606Y-66960007D01*
X82618284Y-66741951D01*
X82618282Y-66741948D01*
X82618280Y-66741943D01*
X82560841Y-66642457D01*
X82500273Y-66537550D01*
X82433083Y-66449986D01*
X82407889Y-66384817D01*
X82421927Y-66316372D01*
X82470741Y-66266383D01*
X82531459Y-66250500D01*
X86989239Y-66250500D01*
X87056278Y-66270185D01*
X87102033Y-66322989D01*
X87111977Y-66392147D01*
X87092574Y-66441920D01*
X87092677Y-66441978D01*
X87092259Y-66442727D01*
X87091539Y-66444576D01*
X87089888Y-66446985D01*
X87003582Y-66642451D01*
X87003580Y-66642457D01*
X86954665Y-66850427D01*
X86954663Y-66850442D01*
X86948500Y-66939239D01*
X86948500Y-68300760D01*
X86954663Y-68389561D01*
X86954664Y-68389570D01*
X87003580Y-68597542D01*
X87003582Y-68597548D01*
X87003583Y-68597551D01*
X87089886Y-68793010D01*
X87089887Y-68793012D01*
X87089888Y-68793013D01*
X87108322Y-68819925D01*
X87129967Y-68886357D01*
X87112261Y-68953946D01*
X87108322Y-68960075D01*
X87089888Y-68986986D01*
X87089886Y-68986989D01*
X87089886Y-68986990D01*
X87032350Y-69117296D01*
X87003582Y-69182451D01*
X87003580Y-69182457D01*
X86954665Y-69390427D01*
X86954663Y-69390442D01*
X86948500Y-69479239D01*
X86948500Y-70840760D01*
X86954663Y-70929561D01*
X86954664Y-70929570D01*
X87003580Y-71137542D01*
X87003582Y-71137548D01*
X87003583Y-71137551D01*
X87089886Y-71333010D01*
X87089887Y-71333012D01*
X87089888Y-71333013D01*
X87108322Y-71359925D01*
X87129967Y-71426357D01*
X87112261Y-71493946D01*
X87108322Y-71500075D01*
X87089888Y-71526986D01*
X87089886Y-71526989D01*
X87089886Y-71526990D01*
X87086169Y-71535409D01*
X87003582Y-71722451D01*
X87003580Y-71722457D01*
X86954665Y-71930427D01*
X86954663Y-71930442D01*
X86948500Y-72019239D01*
X86948500Y-73380760D01*
X86954663Y-73469561D01*
X86954664Y-73469570D01*
X87003580Y-73677542D01*
X87003582Y-73677548D01*
X87003583Y-73677551D01*
X87089886Y-73873010D01*
X87089887Y-73873012D01*
X87089888Y-73873013D01*
X87108322Y-73899925D01*
X87129967Y-73966357D01*
X87112261Y-74033946D01*
X87108322Y-74040075D01*
X87089888Y-74066986D01*
X87089886Y-74066989D01*
X87089886Y-74066990D01*
X87086169Y-74075409D01*
X87003582Y-74262451D01*
X87003580Y-74262457D01*
X86954665Y-74470427D01*
X86954663Y-74470442D01*
X86948500Y-74559239D01*
X86948500Y-75920760D01*
X86954663Y-76009561D01*
X86954664Y-76009570D01*
X87003580Y-76217542D01*
X87003582Y-76217548D01*
X87003583Y-76217551D01*
X87089886Y-76413010D01*
X87210635Y-76589282D01*
X87361718Y-76740365D01*
X87537990Y-76861114D01*
X87733449Y-76947417D01*
X87733455Y-76947418D01*
X87733457Y-76947419D01*
X87941427Y-76996334D01*
X87941430Y-76996334D01*
X87941437Y-76996336D01*
X88030243Y-77002500D01*
X89884473Y-77002499D01*
X89884480Y-77002500D01*
X90115520Y-77002500D01*
X90115526Y-77002499D01*
X90299756Y-77002499D01*
X90299760Y-77002499D01*
X90358960Y-76998390D01*
X90388563Y-76996336D01*
X90388564Y-76996335D01*
X90388570Y-76996335D01*
X90596542Y-76947419D01*
X90596540Y-76947419D01*
X90596551Y-76947417D01*
X90792010Y-76861114D01*
X90968282Y-76740365D01*
X91056104Y-76652541D01*
X91068300Y-76641847D01*
X91115357Y-76605739D01*
X91164591Y-76567961D01*
X91327961Y-76404591D01*
X91468610Y-76221294D01*
X91584130Y-76021207D01*
X91672546Y-75807753D01*
X91732343Y-75584585D01*
X91762500Y-75355520D01*
X91762500Y-75124480D01*
X91732343Y-74895415D01*
X91672546Y-74672247D01*
X91622235Y-74550787D01*
X91584135Y-74458804D01*
X91584128Y-74458789D01*
X91468610Y-74258706D01*
X91327962Y-74075410D01*
X91310235Y-74057683D01*
X91276748Y-73996361D01*
X91281731Y-73926669D01*
X91310235Y-73882317D01*
X91327961Y-73864591D01*
X91468610Y-73681294D01*
X91584130Y-73481207D01*
X91672546Y-73267753D01*
X91732343Y-73044585D01*
X91762500Y-72815520D01*
X91762500Y-72584480D01*
X91732343Y-72355415D01*
X91672546Y-72132247D01*
X91622235Y-72010787D01*
X91584135Y-71918804D01*
X91584128Y-71918789D01*
X91468610Y-71718706D01*
X91327962Y-71535410D01*
X91310235Y-71517683D01*
X91276748Y-71456361D01*
X91281731Y-71386669D01*
X91310235Y-71342317D01*
X91327961Y-71324591D01*
X91468610Y-71141294D01*
X91584130Y-70941207D01*
X91672546Y-70727753D01*
X91732343Y-70504585D01*
X91762500Y-70275520D01*
X91762500Y-70044480D01*
X91732343Y-69815415D01*
X91672546Y-69592247D01*
X91592353Y-69398644D01*
X91584135Y-69378804D01*
X91584128Y-69378789D01*
X91468610Y-69178706D01*
X91327962Y-68995410D01*
X91310235Y-68977683D01*
X91276748Y-68916361D01*
X91281731Y-68846669D01*
X91310235Y-68802317D01*
X91327961Y-68784591D01*
X91468610Y-68601294D01*
X91584130Y-68401207D01*
X91672546Y-68187753D01*
X91732343Y-67964585D01*
X91762500Y-67735520D01*
X91762500Y-67504480D01*
X91732343Y-67275415D01*
X91672546Y-67052247D01*
X91622235Y-66930787D01*
X91584135Y-66838804D01*
X91584128Y-66838789D01*
X91468610Y-66638706D01*
X91327962Y-66455410D01*
X91310235Y-66437683D01*
X91276748Y-66376361D01*
X91281731Y-66306669D01*
X91310235Y-66262317D01*
X91327961Y-66244591D01*
X91468610Y-66061294D01*
X91584130Y-65861207D01*
X91672546Y-65647753D01*
X91732343Y-65424585D01*
X91762500Y-65195520D01*
X91762500Y-64964480D01*
X91732343Y-64735415D01*
X91672546Y-64512247D01*
X91588954Y-64310438D01*
X91584135Y-64298804D01*
X91584128Y-64298789D01*
X91468610Y-64098706D01*
X91327962Y-63915410D01*
X91310235Y-63897683D01*
X91276748Y-63836361D01*
X91281731Y-63766669D01*
X91310235Y-63722317D01*
X91327961Y-63704591D01*
X91468610Y-63521294D01*
X91584130Y-63321207D01*
X91585666Y-63317500D01*
X91610291Y-63258049D01*
X91672546Y-63107753D01*
X91732343Y-62884585D01*
X91762500Y-62655520D01*
X91762500Y-62424480D01*
X91732343Y-62195415D01*
X91672546Y-61972247D01*
X91588153Y-61768505D01*
X91584135Y-61758804D01*
X91584128Y-61758789D01*
X91468610Y-61558706D01*
X91327962Y-61375410D01*
X91310235Y-61357683D01*
X91276748Y-61296361D01*
X91281731Y-61226669D01*
X91310235Y-61182317D01*
X91327961Y-61164591D01*
X91468610Y-60981294D01*
X91584130Y-60781207D01*
X91672546Y-60567753D01*
X91732343Y-60344585D01*
X91762500Y-60115520D01*
X91762500Y-59884480D01*
X91732343Y-59655415D01*
X91672546Y-59432247D01*
X91588954Y-59230438D01*
X91584135Y-59218804D01*
X91584128Y-59218789D01*
X91468610Y-59018706D01*
X91327962Y-58835410D01*
X91327956Y-58835403D01*
X91164596Y-58672043D01*
X91136798Y-58650713D01*
X91068291Y-58598145D01*
X91056097Y-58587450D01*
X90968286Y-58499639D01*
X90968282Y-58499635D01*
X90792010Y-58378886D01*
X90596551Y-58292583D01*
X90596549Y-58292582D01*
X90596548Y-58292582D01*
X90596542Y-58292580D01*
X90388572Y-58243665D01*
X90388557Y-58243663D01*
X90299761Y-58237500D01*
X90299757Y-58237500D01*
X90115520Y-58237500D01*
X89884480Y-58237500D01*
X89884478Y-58237500D01*
X88030239Y-58237500D01*
X87941438Y-58243663D01*
X87941429Y-58243664D01*
X87733457Y-58292580D01*
X87733451Y-58292582D01*
X87537988Y-58378887D01*
X87361719Y-58499634D01*
X87361713Y-58499639D01*
X87210639Y-58650713D01*
X87210632Y-58650721D01*
X87179905Y-58695578D01*
X87125779Y-58739760D01*
X87077606Y-58749500D01*
X82427154Y-58749500D01*
X82360115Y-58729815D01*
X82339473Y-58713181D01*
X82189704Y-58563412D01*
X82189697Y-58563406D01*
X82002454Y-58419730D01*
X82002453Y-58419729D01*
X82002450Y-58419727D01*
X81872318Y-58344595D01*
X81798056Y-58301719D01*
X81798045Y-58301714D01*
X81579993Y-58211394D01*
X81482803Y-58185352D01*
X81352014Y-58150307D01*
X81352013Y-58150306D01*
X81352010Y-58150306D01*
X81118020Y-58119501D01*
X81118017Y-58119500D01*
X81118011Y-58119500D01*
X80881989Y-58119500D01*
X80881983Y-58119500D01*
X80881979Y-58119501D01*
X80647989Y-58150306D01*
X80420006Y-58211394D01*
X80201954Y-58301714D01*
X80201943Y-58301719D01*
X79997545Y-58419730D01*
X79810302Y-58563406D01*
X79810295Y-58563412D01*
X79643412Y-58730295D01*
X79643406Y-58730302D01*
X79499730Y-58917545D01*
X79381719Y-59121943D01*
X79381714Y-59121954D01*
X79291394Y-59340006D01*
X79230306Y-59567989D01*
X79218795Y-59655425D01*
X79199500Y-59801989D01*
X79199500Y-60038011D01*
X79230307Y-60272014D01*
X79249752Y-60344585D01*
X79291394Y-60499993D01*
X79381714Y-60718045D01*
X79381719Y-60718056D01*
X79418173Y-60781195D01*
X79499727Y-60922450D01*
X79499729Y-60922453D01*
X79499730Y-60922454D01*
X79645879Y-61112920D01*
X79644720Y-61113808D01*
X79671537Y-61171662D01*
X79661983Y-61240876D01*
X79645385Y-61266701D01*
X79645879Y-61267080D01*
X79499730Y-61457545D01*
X79381719Y-61661943D01*
X79381714Y-61661954D01*
X79291394Y-61880006D01*
X79230306Y-62107989D01*
X79199501Y-62341979D01*
X79199500Y-62341995D01*
X79199500Y-62578004D01*
X79199501Y-62578020D01*
X79223473Y-62760110D01*
X79230307Y-62812014D01*
X79249752Y-62884585D01*
X79291394Y-63039993D01*
X79381714Y-63258045D01*
X79381719Y-63258056D01*
X79431639Y-63344518D01*
X79499727Y-63462450D01*
X79499729Y-63462453D01*
X79499730Y-63462454D01*
X79645879Y-63652920D01*
X79644720Y-63653808D01*
X79671537Y-63711662D01*
X79661983Y-63780876D01*
X79645385Y-63806701D01*
X79645879Y-63807080D01*
X79499730Y-63997545D01*
X79381719Y-64201943D01*
X79381714Y-64201954D01*
X79291394Y-64420006D01*
X79230306Y-64647989D01*
X79199501Y-64881979D01*
X79199500Y-64881995D01*
X79199500Y-65118004D01*
X79199501Y-65118020D01*
X79225387Y-65314648D01*
X79230307Y-65352014D01*
X79249752Y-65424585D01*
X79291394Y-65579993D01*
X79381714Y-65798045D01*
X79381719Y-65798056D01*
X79418173Y-65861195D01*
X79499727Y-66002450D01*
X79499729Y-66002453D01*
X79499730Y-66002454D01*
X79566917Y-66090014D01*
X79592111Y-66155183D01*
X79578073Y-66223628D01*
X79529259Y-66273617D01*
X79468541Y-66289500D01*
X77609336Y-66289500D01*
X77542297Y-66269815D01*
X77521655Y-66253181D01*
X75286819Y-64018345D01*
X75253334Y-63957022D01*
X75250500Y-63930664D01*
X75250500Y-59569336D01*
X75270185Y-59502297D01*
X75286819Y-59481655D01*
X78481655Y-56286819D01*
X78542978Y-56253334D01*
X78569336Y-56250500D01*
X89430664Y-56250500D01*
X89497703Y-56270185D01*
X89518345Y-56286819D01*
X99265355Y-66033829D01*
X99424595Y-66149524D01*
X99599974Y-66238884D01*
X99755754Y-66289500D01*
X99755756Y-66289501D01*
X99787166Y-66299707D01*
X99787169Y-66299707D01*
X99787174Y-66299709D01*
X99877213Y-66313969D01*
X99981578Y-66330500D01*
X99981583Y-66330500D01*
X99981584Y-66330500D01*
X100178417Y-66330500D01*
X103756438Y-66330500D01*
X103823477Y-66350185D01*
X103869232Y-66402989D01*
X103879176Y-66472147D01*
X103854814Y-66529984D01*
X103815738Y-66580910D01*
X103771386Y-66638710D01*
X103655871Y-66838789D01*
X103655864Y-66838804D01*
X103567454Y-67052246D01*
X103507658Y-67275412D01*
X103507655Y-67275425D01*
X103477501Y-67504470D01*
X103477500Y-67504486D01*
X103477500Y-67735513D01*
X103477501Y-67735529D01*
X103507655Y-67964574D01*
X103507656Y-67964579D01*
X103507657Y-67964585D01*
X103507658Y-67964587D01*
X103567454Y-68187753D01*
X103655864Y-68401195D01*
X103655871Y-68401210D01*
X103771389Y-68601293D01*
X103912037Y-68784589D01*
X103912043Y-68784596D01*
X103929766Y-68802319D01*
X103963251Y-68863642D01*
X103958267Y-68933334D01*
X103929766Y-68977681D01*
X103912043Y-68995403D01*
X103912037Y-68995410D01*
X103771389Y-69178706D01*
X103655871Y-69378789D01*
X103655864Y-69378804D01*
X103567454Y-69592246D01*
X103507658Y-69815412D01*
X103507655Y-69815425D01*
X103477501Y-70044470D01*
X103477500Y-70044486D01*
X103477500Y-70275513D01*
X103477501Y-70275529D01*
X103507655Y-70504574D01*
X103507656Y-70504579D01*
X103507657Y-70504585D01*
X103507658Y-70504587D01*
X103567454Y-70727753D01*
X103655864Y-70941195D01*
X103655871Y-70941210D01*
X103771389Y-71141293D01*
X103912037Y-71324589D01*
X103912043Y-71324596D01*
X103929766Y-71342319D01*
X103963251Y-71403642D01*
X103958267Y-71473334D01*
X103929766Y-71517681D01*
X103912043Y-71535403D01*
X103912037Y-71535410D01*
X103771389Y-71718706D01*
X103655871Y-71918789D01*
X103655864Y-71918804D01*
X103567454Y-72132246D01*
X103507658Y-72355412D01*
X103507655Y-72355425D01*
X103477501Y-72584470D01*
X103477500Y-72584486D01*
X103477500Y-72815513D01*
X103477501Y-72815529D01*
X103507655Y-73044574D01*
X103507656Y-73044579D01*
X103507657Y-73044585D01*
X103507658Y-73044587D01*
X103567454Y-73267753D01*
X103655864Y-73481195D01*
X103655871Y-73481210D01*
X103771389Y-73681293D01*
X103912037Y-73864589D01*
X103912043Y-73864596D01*
X103929766Y-73882319D01*
X103963251Y-73943642D01*
X103958267Y-74013334D01*
X103929766Y-74057681D01*
X103912043Y-74075403D01*
X103912037Y-74075410D01*
X103771389Y-74258706D01*
X103655871Y-74458789D01*
X103655864Y-74458804D01*
X103567454Y-74672246D01*
X103507658Y-74895412D01*
X103507655Y-74895425D01*
X103477501Y-75124470D01*
X103477500Y-75124486D01*
X103477500Y-75355513D01*
X103477501Y-75355529D01*
X103507655Y-75584574D01*
X103507656Y-75584579D01*
X103507657Y-75584585D01*
X103507658Y-75584587D01*
X103567454Y-75807753D01*
X103655864Y-76021195D01*
X103655871Y-76021210D01*
X103771389Y-76221293D01*
X103912037Y-76404589D01*
X103912043Y-76404596D01*
X104075403Y-76567956D01*
X104075410Y-76567962D01*
X104171703Y-76641850D01*
X104183895Y-76652542D01*
X104271718Y-76740365D01*
X104447990Y-76861114D01*
X104643449Y-76947417D01*
X104643455Y-76947418D01*
X104643457Y-76947419D01*
X104851427Y-76996334D01*
X104851430Y-76996334D01*
X104851437Y-76996336D01*
X104940243Y-77002500D01*
X105099811Y-77002499D01*
X105099817Y-77002500D01*
X105124480Y-77002500D01*
X105380183Y-77002500D01*
X105380187Y-77002499D01*
X107209760Y-77002499D01*
X107268960Y-76998390D01*
X107298563Y-76996336D01*
X107298564Y-76996335D01*
X107298570Y-76996335D01*
X107506542Y-76947419D01*
X107506540Y-76947419D01*
X107506551Y-76947417D01*
X107702010Y-76861114D01*
X107878282Y-76740365D01*
X108029365Y-76589282D01*
X108150114Y-76413010D01*
X108236417Y-76217551D01*
X108285336Y-76009563D01*
X108291500Y-75920757D01*
X108291499Y-74559244D01*
X108285336Y-74470437D01*
X108285335Y-74470436D01*
X108285335Y-74470429D01*
X108236419Y-74262457D01*
X108236417Y-74262451D01*
X108236417Y-74262449D01*
X108150114Y-74066990D01*
X108131676Y-74040073D01*
X108110031Y-73973645D01*
X108127736Y-73906056D01*
X108131660Y-73899948D01*
X108150114Y-73873010D01*
X108236417Y-73677551D01*
X108285336Y-73469563D01*
X108291500Y-73380757D01*
X108291499Y-72019244D01*
X108285336Y-71930437D01*
X108285335Y-71930436D01*
X108285335Y-71930429D01*
X108236419Y-71722457D01*
X108236417Y-71722451D01*
X108236417Y-71722449D01*
X108150114Y-71526990D01*
X108131676Y-71500073D01*
X108110031Y-71433645D01*
X108127736Y-71366056D01*
X108131660Y-71359948D01*
X108150114Y-71333010D01*
X108236417Y-71137551D01*
X108285336Y-70929563D01*
X108291500Y-70840757D01*
X108291499Y-69479244D01*
X108285336Y-69390437D01*
X108285335Y-69390436D01*
X108285335Y-69390429D01*
X108236419Y-69182457D01*
X108236417Y-69182451D01*
X108236417Y-69182449D01*
X108150114Y-68986990D01*
X108131676Y-68960073D01*
X108110031Y-68893645D01*
X108127736Y-68826056D01*
X108131660Y-68819948D01*
X108150114Y-68793010D01*
X108236417Y-68597551D01*
X108285336Y-68389563D01*
X108291500Y-68300757D01*
X108291499Y-66939244D01*
X108285336Y-66850437D01*
X108285335Y-66850436D01*
X108285335Y-66850429D01*
X108236419Y-66642457D01*
X108236417Y-66642451D01*
X108236417Y-66642449D01*
X108150114Y-66446990D01*
X108131676Y-66420073D01*
X108110031Y-66353645D01*
X108127736Y-66286056D01*
X108131660Y-66279948D01*
X108150114Y-66253010D01*
X108236417Y-66057551D01*
X108285336Y-65849563D01*
X108291500Y-65760757D01*
X108291499Y-64399244D01*
X108285336Y-64310437D01*
X108285335Y-64310436D01*
X108285335Y-64310429D01*
X108236419Y-64102457D01*
X108236417Y-64102451D01*
X108236417Y-64102449D01*
X108150114Y-63906990D01*
X108029365Y-63730718D01*
X107878282Y-63579635D01*
X107878281Y-63579634D01*
X107878277Y-63579630D01*
X107797822Y-63524517D01*
X107753639Y-63470391D01*
X107745733Y-63400970D01*
X107748823Y-63387623D01*
X107788088Y-63252473D01*
X107788089Y-63252467D01*
X107790999Y-63215488D01*
X107790999Y-61864530D01*
X107790998Y-61864508D01*
X107788088Y-61827529D01*
X107748823Y-61692375D01*
X107749022Y-61622505D01*
X107786964Y-61563835D01*
X107797815Y-61555485D01*
X107878282Y-61500365D01*
X108029365Y-61349282D01*
X108150114Y-61173010D01*
X108236417Y-60977551D01*
X108285336Y-60769563D01*
X108291500Y-60680757D01*
X108291499Y-59319244D01*
X108285336Y-59230437D01*
X108285335Y-59230436D01*
X108285335Y-59230429D01*
X108236419Y-59022457D01*
X108236417Y-59022451D01*
X108236417Y-59022449D01*
X108150114Y-58826990D01*
X108029365Y-58650718D01*
X107878282Y-58499635D01*
X107702010Y-58378886D01*
X107506551Y-58292583D01*
X107506549Y-58292582D01*
X107506548Y-58292582D01*
X107506542Y-58292580D01*
X107298572Y-58243665D01*
X107298557Y-58243663D01*
X107209761Y-58237500D01*
X107209757Y-58237500D01*
X105355526Y-58237500D01*
X105355520Y-58237500D01*
X105124480Y-58237500D01*
X105124473Y-58237500D01*
X104940240Y-58237500D01*
X104851438Y-58243663D01*
X104851429Y-58243664D01*
X104643457Y-58292580D01*
X104643451Y-58292582D01*
X104447988Y-58378887D01*
X104271719Y-58499634D01*
X104271713Y-58499639D01*
X104183892Y-58587459D01*
X104171699Y-58598152D01*
X104075413Y-58672035D01*
X104075411Y-58672037D01*
X103912036Y-58835411D01*
X103771389Y-59018706D01*
X103655871Y-59218789D01*
X103655864Y-59218804D01*
X103567454Y-59432246D01*
X103507658Y-59655412D01*
X103507655Y-59655425D01*
X103477501Y-59884470D01*
X103477500Y-59884486D01*
X103477500Y-60115513D01*
X103477501Y-60115529D01*
X103507655Y-60344574D01*
X103507656Y-60344579D01*
X103507657Y-60344585D01*
X103507658Y-60344587D01*
X103567454Y-60567753D01*
X103655864Y-60781195D01*
X103655871Y-60781210D01*
X103771389Y-60981293D01*
X103912037Y-61164589D01*
X103912043Y-61164596D01*
X104075403Y-61327956D01*
X104075410Y-61327962D01*
X104171703Y-61401850D01*
X104183898Y-61412545D01*
X104271718Y-61500365D01*
X104447990Y-61621114D01*
X104643449Y-61707417D01*
X104762772Y-61735481D01*
X104822059Y-61768505D01*
X105155906Y-62102352D01*
X105068429Y-62125792D01*
X104967070Y-62184311D01*
X104884311Y-62267070D01*
X104825792Y-62368429D01*
X104802352Y-62455905D01*
X104187730Y-61841282D01*
X104187729Y-61841283D01*
X104160643Y-61878564D01*
X104070457Y-62055562D01*
X104009075Y-62244476D01*
X104009075Y-62244479D01*
X103978000Y-62440678D01*
X103978000Y-62639321D01*
X104009075Y-62835520D01*
X104009075Y-62835523D01*
X104070457Y-63024437D01*
X104160641Y-63201432D01*
X104187730Y-63238715D01*
X104187731Y-63238716D01*
X104802352Y-62624094D01*
X104825792Y-62711571D01*
X104884311Y-62812930D01*
X104967070Y-62895689D01*
X105068429Y-62954208D01*
X105155904Y-62977647D01*
X104822059Y-63311493D01*
X104762769Y-63344518D01*
X104643455Y-63372581D01*
X104643451Y-63372582D01*
X104447988Y-63458887D01*
X104271719Y-63579634D01*
X104271713Y-63579639D01*
X104183892Y-63667459D01*
X104175982Y-63674713D01*
X104173889Y-63676471D01*
X104075409Y-63752039D01*
X104030462Y-63796985D01*
X104026356Y-63800436D01*
X103999076Y-63812396D01*
X103972944Y-63826666D01*
X103964447Y-63827579D01*
X103962366Y-63828492D01*
X103959785Y-63828080D01*
X103946586Y-63829500D01*
X100649336Y-63829500D01*
X100582297Y-63809815D01*
X100561655Y-63793181D01*
X90814648Y-54046174D01*
X90814646Y-54046172D01*
X90655405Y-53930476D01*
X90480030Y-53841117D01*
X90292826Y-53780290D01*
X90098422Y-53749500D01*
X90098417Y-53749500D01*
X78098416Y-53749500D01*
X77901583Y-53749500D01*
X77901578Y-53749500D01*
X77707172Y-53780291D01*
X77646348Y-53800053D01*
X77646348Y-53800054D01*
X77603103Y-53814105D01*
X77519970Y-53841117D01*
X77344594Y-53930476D01*
X77253741Y-53996485D01*
X77185354Y-54046172D01*
X77185352Y-54046174D01*
X77185351Y-54046174D01*
X73046174Y-58185351D01*
X73046174Y-58185352D01*
X73046172Y-58185354D01*
X73027253Y-58211394D01*
X72930476Y-58344594D01*
X72841115Y-58519973D01*
X72841114Y-58519976D01*
X72807932Y-58622104D01*
X72780290Y-58707176D01*
X72780290Y-58707177D01*
X72749500Y-58901577D01*
X65500500Y-58901577D01*
X65500500Y-54502706D01*
X65500618Y-54497297D01*
X65503377Y-54434108D01*
X65517387Y-54113224D01*
X65518325Y-54102496D01*
X65568151Y-53724032D01*
X65570024Y-53713402D01*
X65652648Y-53340714D01*
X65655446Y-53330276D01*
X65770230Y-52966227D01*
X65773917Y-52956095D01*
X65920003Y-52603412D01*
X65924561Y-52593638D01*
X66100822Y-52255045D01*
X66106217Y-52245700D01*
X66311325Y-51923744D01*
X66317515Y-51914905D01*
X66549896Y-51612060D01*
X66556834Y-51603791D01*
X66814726Y-51322352D01*
X66822352Y-51314726D01*
X67103791Y-51056834D01*
X67112060Y-51049896D01*
X67414905Y-50817515D01*
X67423744Y-50811325D01*
X67745700Y-50606217D01*
X67755045Y-50600822D01*
X68093638Y-50424561D01*
X68103412Y-50420003D01*
X68456095Y-50273917D01*
X68466227Y-50270230D01*
X68830285Y-50155443D01*
X68840714Y-50152648D01*
X69213402Y-50070024D01*
X69224032Y-50068151D01*
X69602496Y-50018325D01*
X69613224Y-50017387D01*
X69997297Y-50000617D01*
X70002706Y-50000500D01*
X70065892Y-50000500D01*
X110934108Y-50000500D01*
X110997294Y-50000500D01*
X111002702Y-50000617D01*
G37*
%TD.AperFunction*%
%TD*%
M02*
