<svg xmlns="http://www.w3.org/2000/svg" width="1448" height="1086" viewBox="0 0 1448 1086" role="img" aria-label="ORBITER minimalist vector logo">
  <title>ORBITER minimalist vector logo</title>
  <rect width="100%" height="100%" fill="#ffffff"/>
  <g fill="none" stroke="#2f2f2f" stroke-width="5" stroke-linecap="butt" stroke-linejoin="miter">
    <!-- large orbital circle -->
    <circle cx="720" cy="543" r="390"/>

    <!-- O intersecting circle -->
    <circle cx="334" cy="512" r="42" fill="#ffffff"/>

    <!-- R -->
    <path d="M433 550 L433 475 L479 475 Q505 475 505 498 Q505 522 479 522 L433 522"/>
    <path d="M479 522 L510 550"/>

    <!-- B -->
    <path d="M566 550 L566 475 L614 475 Q640 475 640 497 Q640 516 614 516 L566 516"/>
    <path d="M566 516 L619 516 Q647 516 647 533 Q647 550 619 550 L566 550"/>

    <!-- I -->
    <path d="M711 550 L711 475"/>

    <!-- T -->
    <path d="M770 475 L840 475"/>
    <path d="M805 475 L805 550"/>

    <!-- E, stylized as three bars -->
    <path d="M890 475 L955 475"/>
    <path d="M890 512 L948 512"/>
    <path d="M890 550 L955 550"/>

    <!-- R -->
    <path d="M1010 550 L1010 475 L1055 475 Q1082 475 1082 498 Q1082 522 1055 522 L1010 522"/>
    <path d="M1055 522 L1085 550"/>
  </g>
</svg>
